<svg width="19" height="18" viewBox="0 0 19 18" fill="none" xmlns="http://www.w3.org/2000/svg">
<path d="M1 3.41871C1 2.97759 1.17559 2.55455 1.48816 2.24264C1.80072 1.93072 2.22464 1.75549 2.66667 1.75549H7.66667V16.7244H2.66667C2.22464 16.7244 1.80072 16.5492 1.48816 16.2373C1.17559 15.9253 1 15.5023 1 15.0612V3.41871ZM11 1.75549H16C16.442 1.75549 16.8659 1.93072 17.1785 2.24264C17.4911 2.55455 17.6667 2.97759 17.6667 3.41871V7.57674H11V1.75549ZM11 10.9032H17.6667V15.0612C17.6667 15.5023 17.4911 15.9253 17.1785 16.2373C16.8659 16.5492 16.442 16.7244 16 16.7244H11V10.9032Z" stroke="white" stroke-width="2" stroke-linecap="round" stroke-linejoin="round"/>
</svg>
