<svg width="20" height="19" viewBox="0 0 20 19" fill="none" xmlns="http://www.w3.org/2000/svg">
<path d="M15 13.2573L19 9.26559M19 9.26559L15 5.27388M19 9.26559H5M11 13.2573V14.2552C11 15.0492 10.6839 15.8107 10.1213 16.3722C9.55871 16.9336 8.79565 17.249 8 17.249H4C3.20435 17.249 2.44129 16.9336 1.87868 16.3722C1.31607 15.8107 1 15.0492 1 14.2552V4.27595C1 3.48195 1.31607 2.72047 1.87868 2.15903C2.44129 1.59758 3.20435 1.28217 4 1.28217H8C8.79565 1.28217 9.55871 1.59758 10.1213 2.15903C10.6839 2.72047 11 3.48195 11 4.27595V5.27388" stroke="#87868B" stroke-width="2" stroke-linecap="round" stroke-linejoin="round"/>
</svg>
