<svg width="119" height="26" viewBox="0 0 119 26" fill="none" xmlns="http://www.w3.org/2000/svg">
<path fill-rule="evenodd" clip-rule="evenodd" d="M5.46145 12.3972V21.107C5.46145 21.5443 5.10007 21.8987 4.65401 21.8987H1.42463C0.97857 21.8987 0.617188 21.5443 0.617188 21.107V5.27104C0.617188 4.94305 0.823359 4.64907 1.13572 4.53182C1.13572 4.53182 8.15951 1.89192 10.2462 1.10766C10.8043 0.897869 11.4218 0.897869 11.9799 1.10766C14.0666 1.89192 21.0906 4.53182 21.0906 4.53182C21.5066 4.68822 21.7149 5.14638 21.5555 5.55438C21.396 5.96256 20.9288 6.16684 20.5128 6.01045C20.5128 6.01045 13.4888 3.37055 11.4021 2.58629C11.216 2.51636 11.0103 2.51636 10.8242 2.58629L2.23188 5.81567V20.3152H3.84676V8.43828C3.84676 8.00102 4.20814 7.64642 4.65401 7.64642H17.5721C18.018 7.64642 18.3796 8.00102 18.3796 8.43828V20.3152H19.9942V8.43828C19.9942 8.00121 20.356 7.64642 20.8017 7.64642C21.2472 7.64642 21.6089 8.00121 21.6089 8.43828V21.107C21.6089 21.5443 21.2476 21.8987 20.8017 21.8987H17.5721C17.1262 21.8987 16.7647 21.5443 16.7647 21.107V12.3972H5.46145ZM16.7647 10.8137V9.23013H5.46145V10.8137H16.7647Z" fill="white"/>
<path fill-rule="evenodd" clip-rule="evenodd" d="M59.3948 20.3522C59.2589 20.5124 59.0861 20.6141 58.8761 20.6572C58.6662 20.7003 58.4563 20.7003 58.2464 20.6572C58.0365 20.6141 57.8636 20.5555 57.7278 20.4816C57.5178 20.3584 57.3079 20.1766 57.098 19.9363C56.8881 19.696 56.7183 19.3726 56.5886 18.9659C56.459 18.5593 56.3942 18.0356 56.3942 17.3948C56.3942 17.1853 56.3571 16.9912 56.283 16.8125C56.2089 16.6339 56.104 16.4798 55.9681 16.3504C55.8323 16.2211 55.6594 16.1225 55.4495 16.0547L55.2851 16.0102C55.1138 15.9721 54.9216 15.953 54.7086 15.953L51.245 15.9543V19.5389C51.245 19.8593 51.1585 20.1273 50.9857 20.343C50.8128 20.5586 50.572 20.6664 50.2633 20.6664C49.9175 20.6664 49.6088 20.5586 49.3372 20.343C49.0655 20.1273 48.9297 19.8593 48.9297 19.5389V8.85524C48.9297 8.53485 49.0377 8.26684 49.2538 8.05119C49.4699 7.83554 49.7385 7.72772 50.0595 7.72772H55.394C56.0361 7.72772 56.638 7.89716 57.1999 8.23603C57.7617 8.5749 58.2155 9.04316 58.5613 9.6408C58.907 10.2384 59.0799 10.9254 59.0799 11.7018C59.0799 12.17 58.9842 12.6259 58.7928 13.0696C58.6014 13.5132 58.3421 13.9137 58.0149 14.271L57.8137 14.4758C57.6764 14.6059 57.5327 14.7233 57.3825 14.8277L57.282 14.8933L57.318 14.9157C57.4973 15.0429 57.6555 15.1823 57.7926 15.3338C58.021 15.5864 58.2001 15.8575 58.3297 16.1471C58.4594 16.4367 58.5366 16.7479 58.5613 17.0806C58.6107 17.3886 58.6446 17.6597 58.6631 17.8939C58.6817 18.128 58.7187 18.3251 58.7743 18.4853C58.8298 18.6455 58.9379 18.7688 59.0984 18.855C59.3701 19.0152 59.5399 19.2463 59.6078 19.5482C59.6757 19.8501 59.6047 20.1181 59.3948 20.3522ZM55.3013 9.85337H51.245V14.0492H55.3013C55.5236 14.0492 55.7397 13.9475 55.9496 13.7442C56.1595 13.5409 56.3324 13.2636 56.4682 12.9124C56.6041 12.5613 56.672 12.1762 56.672 11.7572C56.672 11.215 56.5269 10.7622 56.2367 10.3986C55.9465 10.0351 55.6347 9.85337 55.3013 9.85337ZM67.2112 20.6664C68.4089 20.6664 69.4184 20.3769 70.2395 19.7977C71.0607 19.2185 71.6874 18.4391 72.1196 17.4595C72.5517 16.4798 72.7678 15.3924 72.7678 14.1971C72.7678 13.3099 72.6474 12.475 72.4066 11.6925C72.1659 10.91 71.8078 10.22 71.3324 9.62232C70.857 9.02467 70.2735 8.5595 69.582 8.22679C68.8905 7.89408 68.1002 7.72772 67.2112 7.72772H62.7843C62.4633 7.72772 62.1947 7.83554 61.9786 8.05119C61.7625 8.26684 61.6545 8.53485 61.6545 8.85524V19.5389C61.6545 19.8593 61.7625 20.1273 61.9786 20.343C62.1947 20.5586 62.4633 20.6664 62.7843 20.6664H67.2112ZM67.0259 9.85337H63.9698V18.5408H67.0259C67.8039 18.5408 68.4398 18.3405 68.9337 17.9401C69.4277 17.5396 69.7888 17.0097 70.0173 16.3504C70.2457 15.6912 70.3599 14.9734 70.3599 14.1971C70.3599 13.6179 70.2951 13.0665 70.1655 12.5428C70.0358 12.0191 69.8351 11.557 69.5635 11.1565C69.2918 10.756 68.9461 10.4387 68.5262 10.2046C68.1064 9.97043 67.6063 9.85337 67.0259 9.85337Z" fill="#ACD9B2"/>
<path fill-rule="evenodd" clip-rule="evenodd" d="M106.021 20.3214C105.791 20.5515 105.504 20.6665 105.162 20.6665C104.833 20.6665 104.556 20.5515 104.332 20.3214C104.108 20.0914 103.996 19.8055 103.996 19.4638V7.27922C103.996 6.93748 104.112 6.65159 104.342 6.42157C104.573 6.19155 104.859 6.07654 105.201 6.07654C105.544 6.07654 105.824 6.19155 106.041 6.42157C106.258 6.65159 106.367 6.93748 106.367 7.27922V19.4638C106.367 19.8055 106.252 20.0914 106.021 20.3214ZM86.8373 20.3707C86.0668 20.6993 85.2337 20.8636 84.338 20.8636C83.416 20.8636 82.5862 20.7486 81.8486 20.5186C81.111 20.2886 80.4064 19.8844 79.7346 19.3061C79.5634 19.1615 79.4317 18.9972 79.3395 18.8132C79.2473 18.6291 79.2012 18.4451 79.2012 18.2611C79.2012 17.9588 79.3098 17.6926 79.5272 17.4626C79.7445 17.2326 80.0178 17.1176 80.3471 17.1176C80.5973 17.1176 80.8213 17.1964 81.0188 17.3542C81.5193 17.7616 82.0166 18.0705 82.5105 18.2808C83.0044 18.4911 83.6136 18.5963 84.338 18.5963C84.8253 18.5963 85.2732 18.5207 85.6815 18.3695C86.0898 18.2184 86.4191 18.0147 86.6693 17.7583C86.9196 17.502 87.0447 17.2096 87.0447 16.881C87.0447 16.4867 86.9262 16.1515 86.6891 15.8755C86.452 15.5994 86.0898 15.3661 85.6025 15.1755C85.1151 14.9849 84.4961 14.8371 83.7453 14.7319C83.034 14.6268 82.4084 14.4658 81.8684 14.2489C81.3283 14.032 80.8772 13.756 80.515 13.4208C80.1528 13.0856 79.8795 12.6913 79.6951 12.2378C79.5107 11.7844 79.4185 11.275 79.4185 10.7098C79.4185 9.85546 79.6391 9.12597 80.0804 8.52134C80.5216 7.91671 81.1176 7.45667 81.8684 7.14121C82.6191 6.82575 83.4489 6.66802 84.3578 6.66802C85.2139 6.66802 86.0075 6.79618 86.7385 7.05249C87.4695 7.3088 88.0655 7.63411 88.5265 8.02843C88.9085 8.33075 89.0995 8.67907 89.0995 9.07339C89.0995 9.36256 88.9875 9.62544 88.7636 9.86204C88.5397 10.0986 88.2762 10.2169 87.9733 10.2169C87.7757 10.2169 87.5979 10.1578 87.4399 10.0395C87.2291 9.85546 86.9459 9.6813 86.5903 9.517C86.2347 9.3527 85.8593 9.21469 85.4642 9.10296C85.069 8.99124 84.7002 8.93538 84.3578 8.93538C83.7914 8.93538 83.3139 9.00767 82.9254 9.15225C82.5368 9.29684 82.2438 9.494 82.0462 9.74374C81.8486 9.99348 81.7498 10.2826 81.7498 10.6112C81.7498 11.0056 81.8651 11.3309 82.0956 11.5872C82.3261 11.8435 82.6587 12.0472 83.0933 12.1984C83.528 12.3496 84.0482 12.4843 84.6541 12.6026C85.4444 12.7472 86.1392 12.918 86.7385 13.1152C87.3378 13.3124 87.835 13.5654 88.2301 13.8743C88.6253 14.1832 88.9216 14.5709 89.1192 15.0375C89.3168 15.5041 89.4156 16.0726 89.4156 16.743C89.4156 17.5973 89.1785 18.3334 88.7043 18.9512C88.2301 19.5689 87.6078 20.0421 86.8373 20.3707ZM97.1505 20.6172C96.7224 20.7815 96.2581 20.8636 95.7576 20.8636C94.8488 20.8636 94.0256 20.6303 93.288 20.1637C92.5504 19.6971 91.9675 19.053 91.5395 18.2315C91.1114 17.41 90.8974 16.4669 90.8974 15.4023C90.8974 14.3245 91.1114 13.3748 91.5395 12.5533C91.9675 11.7318 92.5438 11.0877 93.2682 10.6211C93.9926 10.1545 94.7961 9.92118 95.6786 9.92118C96.2449 9.92118 96.7652 10.0066 97.2394 10.1775C97.7135 10.3484 98.1251 10.5652 98.4742 10.8281L98.6741 10.9862C98.7376 11.0391 98.7994 11.094 98.8595 11.151V11.1239C98.8595 10.7821 98.9714 10.4962 99.1953 10.2662C99.4192 10.0362 99.7024 9.92118 100.045 9.92118C100.387 9.92118 100.671 10.0329 100.894 10.2564C101.118 10.4798 101.23 10.769 101.23 11.1239V19.4638C101.23 19.8055 101.118 20.0914 100.894 20.3214C100.671 20.5515 100.387 20.6665 100.045 20.6665C99.7024 20.6665 99.4192 20.5515 99.1953 20.3214L99.0927 20.2018C98.9683 20.036 98.8937 19.8454 98.8688 19.63L98.8607 19.4835L98.7646 19.5864C98.6224 19.7307 98.4564 19.8739 98.2667 20.0158C97.9506 20.2524 97.5785 20.4529 97.1505 20.6172ZM96.0539 18.6949C95.4876 18.6949 94.9871 18.5503 94.5524 18.2611C94.1178 17.9719 93.7786 17.5776 93.5349 17.0781C93.2913 16.5787 93.1694 16.02 93.1694 15.4023C93.1694 14.7714 93.2913 14.2062 93.5349 13.7067C93.7786 13.2072 94.1178 12.8129 94.5524 12.5237C94.9871 12.2345 95.4876 12.09 96.0539 12.09C96.6335 12.09 97.1406 12.2345 97.5752 12.5237C98.0099 12.8129 98.3491 13.2072 98.5927 13.7067C98.8364 14.2062 98.9582 14.7714 98.9582 15.4023C98.9582 16.02 98.8364 16.5787 98.5927 17.0781C98.3491 17.5776 98.0099 17.9719 97.5752 18.2611C97.1406 18.5503 96.6335 18.6949 96.0539 18.6949ZM114.013 20.8636C114.672 20.8636 115.311 20.7552 115.93 20.5383C116.549 20.3214 117.029 20.0684 117.372 19.7792C117.741 19.4901 117.925 19.168 117.925 18.8132C117.925 18.5503 117.83 18.3203 117.639 18.1231C117.448 17.9259 117.207 17.8274 116.917 17.8274C116.707 17.8274 116.483 17.8865 116.246 18.0048C116.101 18.0837 115.939 18.179 115.762 18.2907C115.584 18.4024 115.35 18.4977 115.06 18.5766C114.77 18.6554 114.382 18.6949 113.895 18.6949C113.368 18.6949 112.871 18.5667 112.403 18.3104C111.935 18.0541 111.553 17.6795 111.257 17.1866C111.088 16.9049 110.967 16.5879 110.894 16.2354L110.889 16.2106H117.411C117.664 16.2106 117.892 16.1475 118.094 16.0214L118.241 15.9149C118.478 15.7177 118.603 15.4614 118.617 15.146C118.617 14.4362 118.482 13.7658 118.212 13.1349C117.941 12.504 117.576 11.9487 117.115 11.4689C116.654 10.9891 116.124 10.6112 115.525 10.3352C114.925 10.0592 114.29 9.92118 113.618 9.92118C112.749 9.92118 111.925 10.1446 111.148 10.5915C110.371 11.0384 109.742 11.6792 109.262 12.5139C108.781 13.3485 108.54 14.3573 108.54 15.5403C108.54 16.5524 108.761 17.4593 109.202 18.2611C109.644 19.0629 110.276 19.6971 111.099 20.1637C111.922 20.6303 112.894 20.8636 114.013 20.8636ZM110.91 14.239H116.088V14.101C116.061 13.7198 115.926 13.3781 115.683 13.0758C115.439 12.7734 115.136 12.5336 114.774 12.3561C114.412 12.1787 114.026 12.09 113.618 12.09C113.223 12.09 112.854 12.1425 112.512 12.2477C112.169 12.3528 111.873 12.5303 111.623 12.78C111.372 13.0298 111.175 13.3649 111.03 13.7855L110.963 14.0052L110.91 14.239Z" fill="white"/>
<path d="M30.3081 20.6665C30.5921 20.6665 30.8422 20.5586 31.0583 20.343C31.2744 20.1273 31.3824 19.8593 31.3824 19.5389V19.5389V15.0338L35.2535 9.50221C35.3029 9.42827 35.3427 9.35297 35.3729 9.27629L35.411 9.16025C35.4419 9.04319 35.4573 8.92921 35.4573 8.8183C35.4573 8.48559 35.3431 8.21142 35.1146 7.99577C34.8862 7.78012 34.63 7.6723 34.346 7.6723C33.9879 7.6723 33.6792 7.85714 33.4198 8.22682V8.22682L30.3661 12.6851L27.1038 8.18985C26.8815 7.89411 26.6275 7.72511 26.3417 7.68286L26.1962 7.6723C25.9245 7.6723 25.659 7.77704 25.3997 7.98653C25.1404 8.19601 25.0107 8.46711 25.0107 8.79982C25.0107 8.92304 25.0354 9.05859 25.0848 9.20646C25.1342 9.35433 25.2207 9.50837 25.3441 9.66856V9.66856L29.1968 14.7787V19.5389C29.1968 19.8059 29.2718 20.0366 29.4219 20.2308L29.5209 20.343C29.737 20.5586 29.9994 20.6665 30.3081 20.6665Z" fill="#ACD9B2"/>
<path fill-rule="evenodd" clip-rule="evenodd" d="M46.4136 20.4631C46.1975 20.6603 45.9598 20.7589 45.7005 20.7589C45.4782 20.7589 45.2776 20.6911 45.0985 20.5556L44.9718 20.4447C44.8525 20.3245 44.7559 20.1766 44.6818 20.001L43.7198 17.7645H38.1965L37.2358 20.0195C37.1494 20.2537 37.0166 20.4354 36.8376 20.5648C36.6585 20.6942 36.4641 20.7589 36.2541 20.7589C35.9207 20.7589 35.6738 20.6665 35.5133 20.4816C35.3527 20.2968 35.2725 20.0688 35.2725 19.7977C35.2725 19.6868 35.291 19.5698 35.328 19.4465L39.9401 8.39317C40.0389 8.14672 40.1901 7.95572 40.3939 7.82017C40.5976 7.68463 40.8168 7.62917 41.0514 7.65382C41.2737 7.65382 41.4805 7.71851 41.6719 7.8479C41.8633 7.97729 42.0022 8.15905 42.0887 8.39317L46.6451 19.2247C46.7069 19.3849 46.7377 19.5328 46.7377 19.6683C46.7377 20.001 46.6297 20.266 46.4136 20.4631ZM39.1029 15.6389H42.8061L40.9452 11.3124L39.1029 15.6389Z" fill="#ACD9B2"/>
</svg>
