<svg width="16" height="20" viewBox="0 0 16 20" fill="none" xmlns="http://www.w3.org/2000/svg">
<path d="M14.1538 10.6535V8.99245H12.9231V10.9195C12.9231 11.0898 12.988 11.2532 13.1034 11.3736L14.7692 13.1124V14.1312H1.23077V13.1124L2.89662 11.3736C3.01203 11.2532 3.07689 11.0898 3.07692 10.9195V8.3501C3.07521 7.44748 3.30172 6.56036 3.73359 5.77836C4.16546 4.99636 4.78739 4.34716 5.53655 3.89635C6.28572 3.44553 7.13559 3.20906 8.00033 3.21082C8.86508 3.21258 9.71406 3.4525 10.4615 3.90636V2.47072C9.87575 2.19999 9.2527 2.02743 8.61538 1.95942V0.641968H7.38462V1.95877C5.86743 2.11996 4.46139 2.86263 3.43838 4.04317C2.41537 5.22371 1.84806 6.75827 1.84615 8.3501V10.6535L0.180308 12.3924C0.0648927 12.5128 3.48538e-05 12.6762 0 12.8465V14.7735C0 14.9439 0.064835 15.1073 0.180242 15.2278C0.295649 15.3482 0.452174 15.4159 0.615385 15.4159H4.92308V16.0582C4.92308 16.91 5.24725 17.727 5.82429 18.3293C6.40132 18.9316 7.18395 19.27 8 19.27C8.81605 19.27 9.59868 18.9316 10.1757 18.3293C10.7527 17.727 11.0769 16.91 11.0769 16.0582V15.4159H15.3846C15.5478 15.4159 15.7044 15.3482 15.8198 15.2278C15.9352 15.1073 16 14.9439 16 14.7735V12.8465C16 12.6762 15.9351 12.5128 15.8197 12.3924L14.1538 10.6535ZM9.84615 16.0582C9.84615 16.5693 9.65165 17.0595 9.30543 17.4209C8.95921 17.7822 8.48963 17.9853 8 17.9853C7.51037 17.9853 7.04079 17.7822 6.69457 17.4209C6.34835 17.0595 6.15385 16.5693 6.15385 16.0582V15.4159H9.84615V16.0582Z" fill="white"/>
<path d="M13.7779 7.73834C15.0052 7.73834 16.0001 6.74548 16.0001 5.52072C16.0001 4.29596 15.0052 3.3031 13.7779 3.3031C12.5506 3.3031 11.5557 4.29596 11.5557 5.52072C11.5557 6.74548 12.5506 7.73834 13.7779 7.73834Z" fill="#E10000"/>
</svg>
