<svg width="19" height="20" viewBox="0 0 19 20" fill="none" xmlns="http://www.w3.org/2000/svg">
<path d="M10.9464 19.3423H7.4884C7.27173 19.3423 7.06156 19.2684 6.89275 19.1329C6.72393 18.9974 6.60661 18.8083 6.56025 18.5971L6.17359 16.811C5.6578 16.5855 5.16872 16.3035 4.71535 15.9701L2.97019 16.5247C2.76363 16.5905 2.54075 16.5837 2.33856 16.5056C2.13637 16.4275 1.96704 16.2827 1.8587 16.0953L0.125895 13.108C0.0186831 12.9204 -0.0215616 12.7021 0.0117453 12.4887C0.0450521 12.2754 0.149939 12.0796 0.309245 11.9334L1.66299 10.701C1.60143 10.1427 1.60143 9.57935 1.66299 9.02106L0.309245 7.79147C0.149713 7.64526 0.0446838 7.4493 0.0113715 7.23572C-0.0219408 7.02213 0.0184399 6.80359 0.125895 6.61591L1.8549 3.62676C1.96324 3.43935 2.13257 3.29457 2.33476 3.21645C2.53695 3.13832 2.75983 3.13157 2.9664 3.19731L4.71155 3.75191C4.94335 3.58126 5.18465 3.42199 5.43355 3.27789C5.6739 3.14327 5.92089 3.02097 6.17359 2.91195L6.5612 1.12775C6.60734 0.91653 6.72444 0.727388 6.89307 0.591688C7.06171 0.455988 7.27176 0.38188 7.4884 0.381653H10.9464C11.163 0.38188 11.3731 0.455988 11.5417 0.591688C11.7104 0.727388 11.8275 0.91653 11.8736 1.12775L12.265 2.9129C12.7805 3.13843 13.2693 3.42047 13.7223 3.7538L15.4684 3.1992C15.6748 3.13371 15.8975 3.14059 16.0995 3.2187C16.3015 3.2968 16.4706 3.44145 16.5789 3.62866L18.3079 6.6178C18.5283 7.00365 18.4523 7.49189 18.1246 7.79242L16.7708 9.02486C16.8324 9.58314 16.8324 10.1465 16.7708 10.7048L18.1246 11.9372C18.4523 12.2387 18.5283 12.726 18.3079 13.1118L16.5789 16.101C16.4706 16.2884 16.3013 16.4332 16.0991 16.5113C15.8969 16.5894 15.674 16.5962 15.4674 16.5304L13.7223 15.9758C13.2693 16.3089 12.7805 16.5906 12.265 16.8158L11.8736 18.5971C11.8273 18.8082 11.7101 18.9971 11.5415 19.1326C11.3728 19.2681 11.1629 19.3421 10.9464 19.3423ZM5.05639 13.8712L5.83539 14.44C6.01114 14.5689 6.19355 14.6875 6.38355 14.7955C6.56215 14.8989 6.74454 14.9918 6.93359 15.0761L7.81995 15.4639L8.2541 17.4462H10.1826L10.6167 15.4629L11.5031 15.0752C11.8897 14.9045 12.2574 14.6931 12.5984 14.4438L13.3774 13.875L15.3173 14.4912L16.2816 12.8246L14.7777 11.4566L14.8841 10.4972C14.9316 10.0772 14.9316 9.6534 14.8841 9.23437L14.7777 8.27496L16.2825 6.90411L15.3173 5.23652L13.3784 5.85274L12.5984 5.28392C12.2572 5.03335 11.89 4.82008 11.5031 4.6478L10.6167 4.26005L10.1826 2.27772H8.2541L7.8171 4.261L6.93359 4.6478C6.54617 4.81712 6.1788 5.02888 5.83824 5.27918L5.0583 5.848L3.12029 5.23178L2.15415 6.90411L3.65799 8.27022L3.55159 9.23058C3.50409 9.65056 3.50409 10.0743 3.55159 10.4934L3.65799 11.4528L2.15415 12.8208L3.1184 14.4874L5.05639 13.8712V13.8712ZM9.2136 13.6541C8.20577 13.6541 7.23923 13.2546 6.52659 12.5434C5.81395 11.8322 5.41359 10.8677 5.41359 9.86197C5.41359 8.85623 5.81395 7.89169 6.52659 7.18053C7.23923 6.46937 8.20577 6.06984 9.2136 6.06984C10.2214 6.06984 11.188 6.46937 11.9006 7.18053C12.6132 7.89169 13.0136 8.85623 13.0136 9.86197C13.0136 10.8677 12.6132 11.8322 11.9006 12.5434C11.188 13.2546 10.2214 13.6541 9.2136 13.6541ZM9.2136 7.96591C8.84153 7.96628 8.47777 8.07566 8.16744 8.28047C7.8571 8.48528 7.61386 8.77652 7.46788 9.11803C7.32189 9.45955 7.2796 9.83632 7.34625 10.2016C7.4129 10.5669 7.58555 10.9046 7.84279 11.1729C8.10002 11.4411 8.43052 11.6281 8.79328 11.7106C9.15603 11.7931 9.53509 11.7675 9.8834 11.637C10.2317 11.5065 10.534 11.2768 10.7527 10.9764C10.9714 10.6761 11.0969 10.3182 11.1136 9.94729V10.3265V9.86197C11.1136 9.3591 10.9134 8.87683 10.5571 8.52125C10.2008 8.16567 9.71751 7.96591 9.2136 7.96591Z" fill="#87868B"/>
</svg>
