<svg width="16" height="21" viewBox="0 0 16 21" fill="none" xmlns="http://www.w3.org/2000/svg">
<path d="M8.5 8.80602C8.5 8.60752 8.57902 8.41715 8.71967 8.27679C8.86032 8.13643 9.05109 8.05758 9.25 8.05758H12.75C12.9489 8.05758 13.1397 8.13643 13.2803 8.27679C13.421 8.41715 13.5 8.60752 13.5 8.80602C13.5 9.00453 13.421 9.19489 13.2803 9.33526C13.1397 9.47562 12.9489 9.55447 12.75 9.55447H9.25C9.05109 9.55447 8.86032 9.47562 8.71967 9.33526C8.57902 9.19489 8.5 9.00453 8.5 8.80602V8.80602ZM9.25 13.5462C9.05109 13.5462 8.86032 13.625 8.71967 13.7654C8.57902 13.9058 8.5 14.0961 8.5 14.2946C8.5 14.4931 8.57902 14.6835 8.71967 14.8239C8.86032 14.9642 9.05109 15.0431 9.25 15.0431H12.75C12.9489 15.0431 13.1397 14.9642 13.2803 14.8239C13.421 14.6835 13.5 14.4931 13.5 14.2946C13.5 14.0961 13.421 13.9058 13.2803 13.7654C13.1397 13.625 12.9489 13.5462 12.75 13.5462H9.25ZM6.78 8.337C6.85369 8.26848 6.91279 8.18585 6.95378 8.09404C6.99477 8.00223 7.01682 7.90312 7.01859 7.80263C7.02037 7.70214 7.00184 7.60231 6.96412 7.50912C6.9264 7.41593 6.87026 7.33127 6.79904 7.2602C6.72782 7.18913 6.64299 7.1331 6.5496 7.09545C6.45621 7.05781 6.35618 7.03932 6.25548 7.0411C6.15478 7.04287 6.05546 7.06487 5.96346 7.10577C5.87146 7.14668 5.78866 7.20566 5.72 7.2792L4.25 8.74615L3.78 8.27712C3.63783 8.14492 3.44978 8.07294 3.25548 8.07636C3.06118 8.07979 2.87579 8.15834 2.73838 8.29546C2.60097 8.43259 2.52225 8.61759 2.51883 8.81149C2.5154 9.00539 2.58752 9.19305 2.72 9.33493L3.72 10.3329C3.86063 10.473 4.05125 10.5517 4.25 10.5517C4.44875 10.5517 4.63937 10.473 4.78 10.3329L6.78 8.337ZM6.78 12.7678C6.92045 12.9081 6.99934 13.0984 6.99934 13.2967C6.99934 13.495 6.92045 13.6853 6.78 13.8256L4.78 15.8215C4.63937 15.9616 4.44875 16.0403 4.25 16.0403C4.05125 16.0403 3.86063 15.9616 3.72 15.8215L2.72 14.8235C2.64631 14.755 2.58721 14.6724 2.54622 14.5806C2.50523 14.4888 2.48319 14.3897 2.48141 14.2892C2.47963 14.1887 2.49816 14.0888 2.53588 13.9957C2.5736 13.9025 2.62974 13.8178 2.70096 13.7467C2.77218 13.6757 2.85701 13.6196 2.9504 13.582C3.04379 13.5443 3.14382 13.5259 3.24452 13.5276C3.34523 13.5294 3.44454 13.5514 3.53654 13.5923C3.62854 13.6332 3.71134 13.6922 3.78 13.7657L4.25 14.2348L5.72 12.7678C5.86063 12.6276 6.05125 12.5489 6.25 12.5489C6.44875 12.5489 6.63937 12.6276 6.78 12.7678V12.7678ZM11.994 2.6528C11.9521 2.0875 11.6975 1.55893 11.2813 1.17319C10.865 0.787453 10.318 0.573087 9.75 0.57312H6.25C5.69656 0.573137 5.16255 0.776704 4.75004 1.1449C4.33754 1.5131 4.07549 2.0201 4.014 2.56898H2.25C1.65326 2.56898 1.08097 2.80554 0.65901 3.22662C0.237053 3.6477 0 4.21881 0 4.81431V18.2863C0 18.8818 0.237053 19.453 0.65901 19.874C1.08097 20.2951 1.65326 20.5317 2.25 20.5317H13.75C14.0455 20.5317 14.3381 20.4736 14.611 20.3608C14.884 20.2479 15.1321 20.0825 15.341 19.874C15.5499 19.6655 15.7157 19.418 15.8287 19.1456C15.9418 18.8732 16 18.5812 16 18.2863V4.81431C16 4.51945 15.9418 4.22748 15.8287 3.95506C15.7157 3.68264 15.5499 3.43512 15.341 3.22662C15.1321 3.01812 14.884 2.85273 14.611 2.73989C14.3381 2.62705 14.0455 2.56898 13.75 2.56898H11.986L11.994 2.6528V2.6528ZM11.994 2.66478L12 2.81846C12 2.76657 11.998 2.71567 11.995 2.66478H11.994ZM6.25 5.0638H9.75C10.53 5.0638 11.217 4.66762 11.621 4.06587H13.75C13.9489 4.06587 14.1397 4.14472 14.2803 4.28508C14.421 4.42544 14.5 4.61581 14.5 4.81431V18.2863C14.5 18.4848 14.421 18.6752 14.2803 18.8156C14.1397 18.9559 13.9489 19.0348 13.75 19.0348H2.25C2.05109 19.0348 1.86032 18.9559 1.71967 18.8156C1.57902 18.6752 1.5 18.4848 1.5 18.2863V4.81431C1.5 4.61581 1.57902 4.42544 1.71967 4.28508C1.86032 4.14472 2.05109 4.06587 2.25 4.06587H4.379C4.783 4.66762 5.47 5.0638 6.25 5.0638ZM6.25 2.07001H9.75C9.94891 2.07001 10.1397 2.14887 10.2803 2.28923C10.421 2.42959 10.5 2.61996 10.5 2.81846C10.5 3.01696 10.421 3.20733 10.2803 3.34769C10.1397 3.48805 9.94891 3.5669 9.75 3.5669H6.25C6.05109 3.5669 5.86032 3.48805 5.71967 3.34769C5.57902 3.20733 5.5 3.01696 5.5 2.81846C5.5 2.61996 5.57902 2.42959 5.71967 2.28923C5.86032 2.14887 6.05109 2.07001 6.25 2.07001Z" fill="white"/>
</svg>
