<svg width="19" height="21" viewBox="0 0 19 21" fill="none" xmlns="http://www.w3.org/2000/svg">
<path d="M18.1533 16.9542C17.6794 15.8338 16.9915 14.8162 16.1282 13.9579C15.2675 13.0971 14.2479 12.4109 13.1257 11.9369C13.1156 11.9319 13.1056 11.9294 13.0955 11.9244C14.6609 10.7961 15.6785 8.95821 15.6785 6.88463C15.6785 3.44955 12.8895 0.666382 9.4473 0.666382C6.00509 0.666382 3.21614 3.44955 3.21614 6.88463C3.21614 8.95821 4.23373 10.7961 5.79906 11.9269C5.78901 11.9319 5.77896 11.9344 5.76891 11.9395C4.64328 12.4133 3.63323 13.0928 2.76639 13.9604C1.90386 14.8193 1.21615 15.8368 0.741269 16.9567C0.274742 18.053 0.023133 19.2285 6.28291e-05 20.4193C-0.000607787 20.4461 0.0040958 20.4727 0.0138966 20.4976C0.0236973 20.5226 0.0383969 20.5453 0.0571292 20.5644C0.0758614 20.5836 0.0982473 20.5988 0.122968 20.6092C0.147688 20.6196 0.174243 20.6249 0.201068 20.6249H1.70861C1.81916 20.6249 1.9071 20.5372 1.90961 20.4294C1.95986 18.4937 2.73876 16.6809 4.11564 15.3068C5.54026 13.8852 7.43222 13.1029 9.4473 13.1029C11.4624 13.1029 13.3543 13.8852 14.779 15.3068C16.1558 16.6809 16.9347 18.4937 16.985 20.4294C16.9875 20.5397 17.0754 20.6249 17.186 20.6249H18.6935C18.7204 20.6249 18.7469 20.6196 18.7716 20.6092C18.7964 20.5988 18.8187 20.5836 18.8375 20.5644C18.8562 20.5453 18.8709 20.5226 18.8807 20.4976C18.8905 20.4727 18.8952 20.4461 18.8945 20.4193C18.8694 19.2208 18.6207 18.0549 18.1533 16.9542V16.9542ZM9.4473 11.1973C8.29403 11.1973 7.20861 10.7485 6.39202 9.93357C5.57544 9.11868 5.12569 8.0355 5.12569 6.88463C5.12569 5.73375 5.57544 4.65057 6.39202 3.83568C7.20861 3.02079 8.29403 2.57197 9.4473 2.57197C10.6006 2.57197 11.686 3.02079 12.5026 3.83568C13.3192 4.65057 13.7689 5.73375 13.7689 6.88463C13.7689 8.0355 13.3192 9.11868 12.5026 9.93357C11.686 10.7485 10.6006 11.1973 9.4473 11.1973Z" fill="white"/>
</svg>
